<?xml version="1.0" standalone="no"?>
<!DOCTYPE svg PUBLIC "-//W3C//DTD SVG 20010904//EN"
 "http://www.w3.org/TR/2001/REC-SVG-20010904/DTD/svg10.dtd">
<svg version="1.0" xmlns="http://www.w3.org/2000/svg"
 width="300.000000pt" height="201.000000pt" viewBox="0 0 300.000000 201.000000"
 preserveAspectRatio="xMidYMid meet">
<metadata>
Created by potrace 1.10, written by Peter Selinger 2001-2011
</metadata>
<g transform="translate(0.000000,201.000000) scale(0.100000,-0.100000)"
fill="#000000" stroke="none">
<path d="M626 1624 c-9 -69 -7 -142 4 -149 5 -3 18 -1 27 4 17 10 17 10 -1 11
-17 0 -18 6 -12 73 4 39 9 80 12 90 3 10 0 17 -9 17 -9 0 -16 -16 -21 -46z"/>
<path d="M1797 1658 c-2 -7 -5 -52 -6 -100 -2 -91 3 -101 39 -78 13 8 12 10
-3 10 -17 0 -18 7 -11 90 4 59 3 90 -4 90 -5 0 -12 -6 -15 -12z"/>
<path d="M1930 1625 c0 -38 -3 -45 -20 -45 -30 0 -60 -36 -60 -70 0 -41 24
-49 56 -19 18 17 23 19 19 6 -9 -21 21 -35 38 -18 8 8 8 11 -2 11 -11 0 -13
19 -9 90 4 72 3 90 -8 90 -10 0 -14 -13 -14 -45z m-6 -63 c8 -13 -33 -74 -44
-67 -15 9 -12 36 7 57 18 20 29 23 37 10z"/>
<path d="M1163 1615 c-1 -19 3 -35 8 -35 5 0 9 6 9 13 0 6 3 22 6 35 4 15 2
22 -7 22 -9 0 -15 -13 -16 -35z"/>
<path d="M475 1630 c-3 -5 1 -10 11 -10 14 0 16 -9 12 -72 l-5 -73 48 -1 c35
-2 49 2 54 13 3 9 2 19 -1 22 -4 3 -9 0 -11 -6 -3 -7 -18 -13 -34 -13 -25 0
-29 4 -29 29 0 26 4 30 33 34 l32 4 -33 1 c-31 2 -33 4 -30 35 2 26 7 31 23
29 11 -2 22 -8 23 -13 7 -17 22 -9 22 11 0 18 -7 20 -54 20 -30 0 -58 -4 -61
-10z"/>
<path d="M1346 1631 c-4 -5 2 -11 11 -13 13 -2 22 -22 34 -73 8 -38 20 -70 25
-72 6 -2 18 20 28 48 19 52 35 52 36 -1 0 -32 16 -58 28 -45 19 22 63 137 58
151 -10 26 -33 16 -29 -13 3 -16 -3 -46 -13 -68 l-17 -40 -9 40 c-22 107 -26
108 -53 23 l-19 -61 -16 64 c-13 51 -20 65 -37 67 -12 2 -24 -1 -27 -7z"/>
<path d="M690 1620 c0 -5 7 -10 15 -10 8 0 15 5 15 10 0 6 -7 10 -15 10 -8 0
-15 -4 -15 -10z"/>
<path d="M750 1620 c0 -5 7 -10 15 -10 8 0 15 5 15 10 0 6 -7 10 -15 10 -8 0
-15 -4 -15 -10z"/>
<path d="M690 1525 c0 -56 8 -66 40 -45 13 8 12 10 -4 10 -15 0 -17 7 -14 45
2 31 -1 45 -9 45 -9 0 -13 -17 -13 -55z"/>
<path d="M750 1506 c0 -51 -4 -77 -14 -85 -10 -8 -16 -9 -21 -1 -9 15 -25 12
-25 -5 0 -21 43 -19 63 3 10 11 19 46 23 90 6 63 5 72 -10 72 -13 0 -16 -12
-16 -74z"/>
<path d="M823 1573 c-18 -7 -16 -33 2 -33 8 0 14 4 13 9 -2 5 2 11 7 13 17 5
17 -48 1 -62 -13 -10 -16 -10 -16 3 0 8 6 18 13 21 6 3 3 5 -7 3 -27 -3 -44
-33 -28 -49 10 -10 17 -10 34 1 16 10 22 10 28 0 5 -7 15 -9 26 -4 18 8 18 8
0 12 -14 4 -17 11 -12 35 9 46 -18 69 -61 51z"/>
<path d="M905 1570 c-3 -5 1 -10 11 -10 14 0 16 -7 11 -45 -5 -36 -4 -45 8
-45 9 0 15 9 15 24 0 13 9 34 20 47 21 26 23 22 20 -29 -2 -35 20 -52 43 -33
10 7 17 7 24 0 8 -8 17 -8 29 -1 12 7 23 6 36 -1 13 -9 21 -8 30 1 9 9 8 12
-5 12 -13 0 -17 9 -17 40 0 46 -17 59 -56 42 -27 -13 -32 -32 -9 -32 8 0 14 6
13 13 -2 6 4 12 12 12 17 0 18 -51 1 -68 -16 -16 -26 0 -11 18 19 23 -6 19
-30 -5 -32 -32 -43 -25 -35 20 8 48 -13 64 -45 35 -18 -16 -20 -17 -20 -2 0
19 -35 24 -45 7z"/>
<path d="M1222 1568 c-19 -19 -14 -38 13 -48 25 -10 32 -24 16 -34 -5 -3 -14
1 -21 9 -7 8 -16 12 -22 9 -13 -8 11 -34 33 -34 9 0 25 8 34 17 16 16 16 18
-4 34 -12 10 -27 19 -34 22 -9 4 -9 7 1 18 11 12 14 12 21 0 5 -8 14 -10 21
-6 9 6 9 9 -1 16 -20 12 -43 11 -57 -3z"/>
<path d="M1604 1572 c-6 -4 -16 -17 -23 -30 -10 -19 -10 -28 4 -48 19 -30 49
-31 69 -2 36 51 -2 112 -50 80z m46 -45 c0 -4 -5 -17 -11 -28 -8 -16 -13 -18
-25 -8 -17 14 -18 51 -2 67 10 10 15 9 25 -5 7 -9 13 -21 13 -26z"/>
<path d="M1685 1570 c-3 -5 -1 -10 5 -10 8 0 11 -15 8 -45 -2 -31 1 -45 9 -45
7 0 13 8 13 18 0 24 24 67 37 67 20 0 26 14 9 21 -11 4 -22 0 -31 -12 -13 -18
-14 -18 -15 -1 0 18 -25 24 -35 7z"/>
<path d="M2750 1445 c0 -8 7 -15 15 -15 8 0 15 7 15 15 0 8 -7 15 -15 15 -8 0
-15 -7 -15 -15z"/>
<path d="M929 1370 c-6 -57 -6 -91 1 -95 11 -7 19 78 9 90 -5 5 -9 7 -10 5z"/>
<path d="M979 1333 c-10 -33 -13 -35 -20 -18 -8 20 -8 20 -8 0 0 -11 3 -27 9
-35 7 -11 11 -9 19 13 12 31 22 37 14 8 -3 -10 0 -22 6 -25 7 -5 11 10 11 43
0 60 -14 66 -31 14z"/>
<path d="M1129 1363 c-1 -5 -1 -11 0 -15 0 -5 -8 -8 -18 -8 -10 0 -22 -7 -25
-16 -9 -23 11 -53 34 -51 17 1 20 8 20 49 0 26 -2 48 -5 48 -3 0 -6 -3 -6 -7z
m1 -53 c0 -11 -7 -20 -15 -20 -8 0 -15 9 -15 20 0 11 7 20 15 20 8 0 15 -9 15
-20z"/>
<path d="M1260 1370 c-1 -3 -2 -24 -3 -48 -2 -32 2 -44 15 -48 25 -8 38 3 38
33 0 16 -7 27 -19 30 -11 3 -22 12 -24 22 -3 9 -6 14 -7 11z m40 -60 c0 -11
-7 -20 -15 -20 -8 0 -15 9 -15 20 0 11 7 20 15 20 8 0 15 -9 15 -20z"/>
<path d="M1031 1336 c-10 -12 -8 -14 11 -10 l23 5 -22 -12 c-38 -20 -24 -57
16 -44 15 4 17 12 12 37 -7 36 -23 45 -40 24z m29 -36 c0 -5 -8 -10 -17 -10
-15 0 -16 2 -3 10 19 12 20 12 20 0z"/>
<path d="M1162 1338 c-17 -17 -15 -43 3 -58 28 -23 57 28 33 57 -13 16 -21 16
-36 1z m28 -18 c0 -5 -4 -10 -10 -10 -5 0 -10 5 -10 10 0 6 5 10 10 10 6 0 10
-4 10 -10z m7 -26 c-3 -3 -12 -4 -19 -1 -8 3 -5 6 6 6 11 1 17 -2 13 -5z"/>
<path d="M1320 1340 c0 -5 5 -20 11 -34 10 -20 9 -29 -2 -42 -12 -15 -12 -17
1 -12 16 5 49 63 50 88 0 19 -17 0 -22 -25 -4 -18 -6 -17 -16 8 -11 27 -22 36
-22 17z"/>
<path d="M1860 1291 c-5 -11 -10 -30 -10 -42 0 -29 -62 -131 -122 -201 -71
-83 -49 -90 25 -9 34 38 63 68 64 67 1 -1 -4 -31 -12 -66 -8 -36 -19 -90 -25
-120 -10 -53 -13 -57 -64 -88 -63 -37 -146 -127 -146 -157 0 -8 -7 -30 -17
-49 -15 -33 -15 -36 1 -61 14 -21 23 -25 43 -20 74 18 134 85 169 189 16 47
28 57 37 32 7 -18 124 -20 148 -3 22 17 79 121 79 145 0 29 36 106 43 90 5
-15 2 -225 -4 -247 -2 -8 4 -17 14 -19 13 -3 17 3 17 30 0 18 7 43 15 54 8 12
11 24 7 28 -3 4 -2 10 4 14 6 4 23 29 36 57 l26 49 6 -39 c4 -22 2 -56 -4 -75
-24 -83 1 -94 55 -24 26 36 35 42 35 27 0 -28 25 -46 55 -41 14 3 28 1 31 -3
3 -5 12 -9 21 -9 10 0 13 5 8 18 -8 22 54 151 74 151 8 1 23 8 33 18 10 9 20
14 23 12 8 -8 -36 -82 -60 -101 -12 -9 -35 -46 -49 -80 -26 -61 -28 -63 -66
-64 -49 -2 -169 -41 -195 -64 -23 -20 -64 -43 -82 -46 -6 -1 -27 -14 -46 -28
-19 -14 -39 -26 -45 -26 -6 0 -17 -6 -24 -13 -14 -14 -76 -57 -133 -92 -19
-12 -42 -27 -52 -35 -10 -9 -36 -23 -58 -33 -22 -11 -53 -25 -68 -33 -16 -8
-36 -14 -45 -14 -9 0 -25 -7 -35 -14 -14 -11 -56 -14 -165 -14 l-147 0 -80 43
c-44 24 -105 56 -135 70 -30 15 -63 31 -73 36 -31 17 -110 21 -157 9 -25 -6
-52 -12 -60 -14 -9 -1 -21 -5 -28 -9 -19 -12 -134 -49 -167 -54 -16 -2 -43 -8
-59 -13 -16 -6 -38 -10 -48 -10 -56 0 -292 -142 -271 -163 13 -13 32 -7 38 13
4 11 10 18 15 15 5 -3 12 0 15 5 4 6 17 15 28 21 12 5 29 13 37 19 33 21 133
62 158 65 51 7 137 26 157 35 55 26 126 47 211 62 59 11 65 10 148 -22 47 -18
91 -39 98 -47 6 -8 48 -31 92 -53 l81 -38 149 0 c126 0 154 3 179 18 16 10 35
16 42 14 6 -3 18 2 25 11 7 8 19 15 27 15 21 0 99 44 178 99 39 27 102 68 140
92 39 23 72 46 73 51 2 4 13 8 23 8 11 0 41 16 66 35 25 19 53 35 63 35 9 0
20 3 24 7 8 9 17 11 98 25 81 14 199 -6 298 -49 43 -18 64 -23 72 -15 18 18
-140 80 -230 89 l-53 6 26 27 c15 15 28 34 29 41 7 37 43 91 70 104 44 22 58
20 50 -10 -4 -18 -2 -25 8 -25 13 0 38 37 44 67 1 6 7 19 13 30 9 15 10 11 11
-23 0 -42 20 -71 40 -59 8 5 8 11 -1 21 -12 14 -7 172 7 242 5 26 3 32 -10 32
-20 0 -36 -39 -36 -86 0 -19 -4 -42 -10 -52 -5 -9 -16 -33 -23 -52 -11 -27
-20 -36 -41 -38 -15 -1 -35 -6 -45 -12 -17 -9 -18 -5 -13 35 2 25 1 45 -3 45
-4 0 -33 -15 -64 -34 -54 -33 -101 -83 -105 -112 -3 -18 -36 -54 -51 -54 -20
0 -25 38 -10 86 12 40 12 45 -2 42 -8 -2 -29 -29 -47 -60 -42 -76 -47 -79 -41
-27 7 53 -11 93 -43 97 -19 3 -26 -6 -46 -49 l-23 -53 -7 63 c-13 112 -44 143
-73 74 -19 -48 -17 -47 -43 -33 -34 18 -77 -3 -138 -68 -51 -53 -54 -55 -48
-27 4 17 12 54 16 83 5 29 11 56 14 60 2 4 7 36 11 72 3 35 11 72 16 83 12 21
19 48 26 95 6 36 -10 44 -27 13z m129 -340 c12 -8 8 -20 -24 -65 -37 -54 -82
-103 -87 -95 -2 2 -11 19 -22 37 l-18 34 33 35 c19 19 48 41 64 49 36 16 36
16 54 5z m-189 -121 c0 -5 -2 -10 -4 -10 -3 0 -8 5 -11 10 -3 6 -1 10 4 10 6
0 11 -4 11 -10z m160 -8 c0 -13 -41 -54 -48 -48 -3 4 5 17 18 31 25 27 30 30
30 17z m-210 -48 c-11 -24 -17 -44 -14 -44 3 0 -3 -15 -13 -32 -41 -76 -126
-144 -144 -116 -5 7 -6 20 -2 28 3 8 11 30 17 49 13 42 125 156 154 158 l21 2
-19 -45z m94 30 c8 -22 8 -24 -8 -24 -18 0 -29 16 -21 30 9 15 22 12 29 -6z"/>
<path d="M620 1208 c-103 -44 -150 -76 -257 -179 -40 -38 -79 -69 -87 -69 -19
0 -29 -17 -16 -25 7 -4 -3 -23 -25 -50 -19 -24 -35 -48 -35 -54 0 -23 61 -9
143 34 94 48 112 48 45 0 -105 -75 -373 -333 -373 -358 0 -7 13 -13 28 -15 35
-4 223 89 308 152 31 22 96 70 145 106 48 36 103 82 122 103 20 20 39 37 43
37 10 0 -19 -58 -34 -67 -20 -13 -68 -93 -62 -103 10 -16 41 -11 68 10 30 24
45 26 27 5 -10 -11 -10 -19 -2 -27 7 -7 18 5 37 43 15 30 35 63 44 74 10 11
25 32 34 48 17 26 17 27 0 27 -10 0 -47 -34 -83 -75 -75 -85 -98 -98 -46 -25
20 28 36 53 36 58 0 19 79 124 145 192 81 83 123 149 102 162 -13 9 -53 -31
-122 -122 -92 -120 -235 -256 -335 -317 -20 -12 -47 -34 -60 -48 -28 -30 -114
-89 -175 -120 -22 -11 -47 -25 -55 -30 -8 -5 -21 -10 -28 -11 -8 -2 -22 -10
-33 -20 -10 -9 -19 -14 -19 -9 0 4 -7 2 -15 -5 -9 -7 -17 -11 -20 -9 -7 7 167
181 253 253 46 38 123 101 173 139 70 54 87 72 79 82 -9 11 -20 9 -61 -10 -27
-12 -57 -29 -67 -37 -15 -12 -88 -50 -102 -53 -3 0 -15 -6 -27 -13 -12 -7 -34
-17 -50 -23 -27 -10 -26 -8 12 30 21 23 47 41 57 41 10 0 18 5 18 10 0 6 9 10
19 10 11 0 22 4 25 9 3 5 23 18 43 29 21 10 73 37 115 60 145 76 192 133 133
160 -30 14 -32 14 -65 0z m57 -26 c20 -12 -136 -122 -173 -122 -8 0 -14 -4
-14 -9 0 -5 -12 -14 -27 -20 -34 -14 -65 -32 -87 -50 -9 -8 -19 -11 -22 -9 -8
9 137 136 187 165 38 22 103 50 119 52 3 0 11 -3 17 -7z"/>
<path d="M2445 1030 c3 -5 8 -10 11 -10 2 0 4 5 4 10 0 6 -5 10 -11 10 -5 0
-7 -4 -4 -10z"/>
<path d="M857 1023 c-12 -11 -8 -23 8 -23 8 0 15 7 15 15 0 16 -12 20 -23 8z"/>
<path d="M1493 953 c-36 -58 -163 -171 -163 -146 0 5 23 31 52 58 52 49 68 75
44 75 -19 0 -137 -140 -130 -152 11 -18 76 0 116 32 21 17 38 28 38 24 0 -14
-35 -81 -57 -107 -13 -16 -23 -33 -23 -38 0 -16 35 -9 45 9 46 84 115 241 115
262 0 19 -20 10 -37 -17z"/>
<path d="M1246 939 c-20 -17 -40 -29 -43 -25 -7 7 -63 -42 -63 -55 0 -12 -48
-58 -54 -52 -3 3 -1 13 3 22 19 36 41 92 41 101 0 6 -6 10 -14 10 -7 0 -28
-29 -46 -65 -29 -56 -86 -115 -113 -115 -22 0 0 40 45 82 53 49 58 72 10 48
-73 -37 -120 -160 -60 -160 21 0 67 26 86 49 10 13 12 12 12 -7 0 -30 21 -27
55 8 21 22 32 27 41 19 15 -12 34 -4 34 15 0 17 99 124 100 108 0 -17 -36 -86
-56 -106 -9 -10 -13 -23 -9 -34 6 -16 8 -15 21 3 8 11 21 28 29 37 42 51 57
116 31 137 -11 10 -22 5 -50 -20z"/>
<path d="M874 853 c-9 -20 -29 -52 -45 -72 -16 -20 -57 -74 -91 -120 -74 -99
-181 -177 -174 -125 3 19 65 76 153 141 62 45 76 63 50 63 -21 0 -86 -50 -167
-128 -56 -54 -71 -74 -68 -93 2 -19 10 -25 36 -27 17 -2 32 1 32 6 0 6 11 13
24 16 40 10 162 143 207 226 8 14 26 39 40 55 29 33 48 95 29 95 -6 0 -18 -16
-26 -37z"/>
</g>
</svg>
